<mxfile host="app.diagrams.net" agent="Mozilla/5.0 (Windows NT 10.0; Win64; x64) AppleWebKit/537.36 (KHTML, like Gecko) Chrome/127.0.0.0 Safari/537.36" version="24.7.5">
  <diagram name="Page-1" id="p30NI1ViAgntARm7wmjN">
    <mxGraphModel grid="1" page="1" gridSize="10" guides="1" tooltips="1" connect="1" arrows="1" fold="1" pageScale="1" pageWidth="850" pageHeight="1100" math="0" shadow="0">
      <root>
        <mxCell id="0" />
        <mxCell id="1" parent="0" />
        <mxCell id="aUC6Q6Wzll9-7zqiY6J1-7" value="" style="edgeStyle=orthogonalEdgeStyle;rounded=0;orthogonalLoop=1;jettySize=auto;html=1;" edge="1" parent="1" source="aUC6Q6Wzll9-7zqiY6J1-1" target="aUC6Q6Wzll9-7zqiY6J1-4">
          <mxGeometry relative="1" as="geometry" />
        </mxCell>
        <mxCell id="aUC6Q6Wzll9-7zqiY6J1-1" value="dataset X" style="rounded=1;whiteSpace=wrap;html=1;" vertex="1" parent="1">
          <mxGeometry x="200" y="80" width="120" height="40" as="geometry" />
        </mxCell>
        <mxCell id="aUC6Q6Wzll9-7zqiY6J1-3" value="sts_cnt" style="rounded=1;whiteSpace=wrap;html=1;" vertex="1" parent="1">
          <mxGeometry x="40" y="160" width="120" height="40" as="geometry" />
        </mxCell>
        <mxCell id="aUC6Q6Wzll9-7zqiY6J1-4" value="flw_cnt" style="rounded=1;whiteSpace=wrap;html=1;" vertex="1" parent="1">
          <mxGeometry x="200" y="160" width="120" height="40" as="geometry" />
        </mxCell>
        <mxCell id="aUC6Q6Wzll9-7zqiY6J1-11" value="" style="edgeStyle=orthogonalEdgeStyle;rounded=0;orthogonalLoop=1;jettySize=auto;html=1;" edge="1" parent="1" source="aUC6Q6Wzll9-7zqiY6J1-5" target="aUC6Q6Wzll9-7zqiY6J1-6">
          <mxGeometry relative="1" as="geometry" />
        </mxCell>
        <mxCell id="aUC6Q6Wzll9-7zqiY6J1-5" value="content" style="rounded=1;whiteSpace=wrap;html=1;" vertex="1" parent="1">
          <mxGeometry x="360" y="160" width="120" height="40" as="geometry" />
        </mxCell>
        <mxCell id="aUC6Q6Wzll9-7zqiY6J1-6" value="nama_re" style="rounded=1;whiteSpace=wrap;html=1;" vertex="1" parent="1">
          <mxGeometry x="360" y="220" width="120" height="40" as="geometry" />
        </mxCell>
        <mxCell id="aUC6Q6Wzll9-7zqiY6J1-8" value="" style="endArrow=classic;html=1;rounded=0;exitX=0.5;exitY=1;exitDx=0;exitDy=0;entryX=0.5;entryY=0;entryDx=0;entryDy=0;" edge="1" parent="1" source="aUC6Q6Wzll9-7zqiY6J1-1" target="aUC6Q6Wzll9-7zqiY6J1-3">
          <mxGeometry width="50" height="50" relative="1" as="geometry">
            <mxPoint x="310" y="370" as="sourcePoint" />
            <mxPoint x="360" y="320" as="targetPoint" />
            <Array as="points">
              <mxPoint x="260" y="140" />
              <mxPoint x="100" y="140" />
            </Array>
          </mxGeometry>
        </mxCell>
        <mxCell id="aUC6Q6Wzll9-7zqiY6J1-10" value="" style="endArrow=classic;html=1;rounded=0;entryX=0.5;entryY=0;entryDx=0;entryDy=0;" edge="1" parent="1" target="aUC6Q6Wzll9-7zqiY6J1-5">
          <mxGeometry width="50" height="50" relative="1" as="geometry">
            <mxPoint x="260" y="120" as="sourcePoint" />
            <mxPoint x="110" y="170" as="targetPoint" />
            <Array as="points">
              <mxPoint x="260" y="140" />
              <mxPoint x="420" y="140" />
            </Array>
          </mxGeometry>
        </mxCell>
        <mxCell id="Q5uSWT1oFPIllIusk-IL-10" value="" style="edgeStyle=orthogonalEdgeStyle;rounded=0;orthogonalLoop=1;jettySize=auto;html=1;" edge="1" parent="1" source="aUC6Q6Wzll9-7zqiY6J1-14" target="Q5uSWT1oFPIllIusk-IL-9">
          <mxGeometry relative="1" as="geometry" />
        </mxCell>
        <mxCell id="aUC6Q6Wzll9-7zqiY6J1-14" value="&lt;div&gt;filter (nama_re contains &amp;gt;3digits) &amp;amp;&lt;/div&gt;&lt;div&gt;(flw_cnt &amp;lt; 100)&lt;br&gt;&lt;/div&gt;" style="rounded=1;whiteSpace=wrap;html=1;" vertex="1" parent="1">
          <mxGeometry x="160" y="350" width="200" height="50" as="geometry" />
        </mxCell>
        <mxCell id="aUC6Q6Wzll9-7zqiY6J1-15" value="&lt;div&gt;filter (sts_cnt &amp;gt; 1000) &amp;amp;&lt;/div&gt;&lt;div&gt;(flw_cnt &amp;lt; 100)&lt;br&gt;&lt;/div&gt;" style="rounded=1;whiteSpace=wrap;html=1;" vertex="1" parent="1">
          <mxGeometry x="20" y="350" width="120" height="50" as="geometry" />
        </mxCell>
        <mxCell id="aUC6Q6Wzll9-7zqiY6J1-16" value="&lt;div&gt;filter (nama_re contains &amp;gt;3digits) &amp;amp;&lt;/div&gt;&lt;div&gt;(sts_cnt &amp;gt; 1000)&lt;br&gt;&lt;/div&gt;" style="rounded=1;whiteSpace=wrap;html=1;" vertex="1" parent="1">
          <mxGeometry x="380" y="350" width="200" height="50" as="geometry" />
        </mxCell>
        <mxCell id="Q5uSWT1oFPIllIusk-IL-3" value="" style="endArrow=classic;html=1;rounded=0;entryX=0.5;entryY=0;entryDx=0;entryDy=0;" edge="1" parent="1" target="aUC6Q6Wzll9-7zqiY6J1-15">
          <mxGeometry width="50" height="50" relative="1" as="geometry">
            <mxPoint x="100" y="200" as="sourcePoint" />
            <mxPoint x="500" y="340" as="targetPoint" />
          </mxGeometry>
        </mxCell>
        <mxCell id="Q5uSWT1oFPIllIusk-IL-4" value="" style="endArrow=classic;html=1;rounded=0;exitX=0.5;exitY=1;exitDx=0;exitDy=0;entryX=0.5;entryY=0;entryDx=0;entryDy=0;" edge="1" parent="1" source="aUC6Q6Wzll9-7zqiY6J1-4" target="aUC6Q6Wzll9-7zqiY6J1-15">
          <mxGeometry width="50" height="50" relative="1" as="geometry">
            <mxPoint x="580" y="420" as="sourcePoint" />
            <mxPoint x="630" y="370" as="targetPoint" />
          </mxGeometry>
        </mxCell>
        <mxCell id="Q5uSWT1oFPIllIusk-IL-5" value="" style="endArrow=classic;html=1;rounded=0;exitX=0.5;exitY=1;exitDx=0;exitDy=0;entryX=0.5;entryY=0;entryDx=0;entryDy=0;" edge="1" parent="1" source="aUC6Q6Wzll9-7zqiY6J1-6" target="aUC6Q6Wzll9-7zqiY6J1-16">
          <mxGeometry width="50" height="50" relative="1" as="geometry">
            <mxPoint x="630" y="410" as="sourcePoint" />
            <mxPoint x="680" y="360" as="targetPoint" />
          </mxGeometry>
        </mxCell>
        <mxCell id="Q5uSWT1oFPIllIusk-IL-6" value="" style="endArrow=classic;html=1;rounded=0;exitX=0.5;exitY=1;exitDx=0;exitDy=0;entryX=0.5;entryY=0;entryDx=0;entryDy=0;" edge="1" parent="1" source="aUC6Q6Wzll9-7zqiY6J1-6" target="aUC6Q6Wzll9-7zqiY6J1-14">
          <mxGeometry width="50" height="50" relative="1" as="geometry">
            <mxPoint x="430" y="270" as="sourcePoint" />
            <mxPoint x="590" y="330" as="targetPoint" />
          </mxGeometry>
        </mxCell>
        <mxCell id="Q5uSWT1oFPIllIusk-IL-7" value="" style="endArrow=classic;html=1;rounded=0;exitX=0.5;exitY=1;exitDx=0;exitDy=0;entryX=0.5;entryY=0;entryDx=0;entryDy=0;" edge="1" parent="1" source="aUC6Q6Wzll9-7zqiY6J1-3" target="aUC6Q6Wzll9-7zqiY6J1-14">
          <mxGeometry width="50" height="50" relative="1" as="geometry">
            <mxPoint x="640" y="390" as="sourcePoint" />
            <mxPoint x="220" y="300" as="targetPoint" />
          </mxGeometry>
        </mxCell>
        <mxCell id="Q5uSWT1oFPIllIusk-IL-8" value="" style="endArrow=classic;html=1;rounded=0;exitX=0.5;exitY=1;exitDx=0;exitDy=0;entryX=0.5;entryY=0;entryDx=0;entryDy=0;" edge="1" parent="1" source="aUC6Q6Wzll9-7zqiY6J1-4" target="aUC6Q6Wzll9-7zqiY6J1-16">
          <mxGeometry width="50" height="50" relative="1" as="geometry">
            <mxPoint x="640" y="390" as="sourcePoint" />
            <mxPoint x="690" y="340" as="targetPoint" />
          </mxGeometry>
        </mxCell>
        <mxCell id="Q5uSWT1oFPIllIusk-IL-9" value="Sample Dataset Latih" style="rounded=1;whiteSpace=wrap;html=1;" vertex="1" parent="1">
          <mxGeometry x="200" y="440" width="120" height="40" as="geometry" />
        </mxCell>
        <mxCell id="Q5uSWT1oFPIllIusk-IL-11" value="" style="endArrow=classic;html=1;rounded=0;exitX=0.5;exitY=1;exitDx=0;exitDy=0;entryX=0.5;entryY=0;entryDx=0;entryDy=0;" edge="1" parent="1" source="aUC6Q6Wzll9-7zqiY6J1-15" target="Q5uSWT1oFPIllIusk-IL-9">
          <mxGeometry width="50" height="50" relative="1" as="geometry">
            <mxPoint x="470" y="410" as="sourcePoint" />
            <mxPoint x="520" y="360" as="targetPoint" />
            <Array as="points">
              <mxPoint x="80" y="420" />
              <mxPoint x="260" y="420" />
            </Array>
          </mxGeometry>
        </mxCell>
        <mxCell id="Q5uSWT1oFPIllIusk-IL-12" value="" style="endArrow=classic;html=1;rounded=0;exitX=0.5;exitY=1;exitDx=0;exitDy=0;entryX=0.5;entryY=0;entryDx=0;entryDy=0;" edge="1" parent="1" source="aUC6Q6Wzll9-7zqiY6J1-16" target="Q5uSWT1oFPIllIusk-IL-9">
          <mxGeometry width="50" height="50" relative="1" as="geometry">
            <mxPoint x="360" y="480" as="sourcePoint" />
            <mxPoint x="410" y="430" as="targetPoint" />
            <Array as="points">
              <mxPoint x="480" y="420" />
              <mxPoint x="260" y="420" />
            </Array>
          </mxGeometry>
        </mxCell>
        <mxCell id="Q5uSWT1oFPIllIusk-IL-13" value="Pengecekan manual" style="rounded=1;whiteSpace=wrap;html=1;" vertex="1" parent="1">
          <mxGeometry x="200" y="500" width="120" height="40" as="geometry" />
        </mxCell>
        <mxCell id="Q5uSWT1oFPIllIusk-IL-14" value="&lt;div&gt;Dataset Latih&amp;nbsp;&lt;/div&gt;&lt;div&gt;Deteksi Buzzer&lt;/div&gt;" style="rounded=1;whiteSpace=wrap;html=1;" vertex="1" parent="1">
          <mxGeometry x="200" y="560" width="120" height="40" as="geometry" />
        </mxCell>
        <mxCell id="Q5uSWT1oFPIllIusk-IL-16" value="" style="endArrow=classic;html=1;rounded=0;exitX=0.5;exitY=1;exitDx=0;exitDy=0;entryX=0.5;entryY=0;entryDx=0;entryDy=0;" edge="1" parent="1" source="Q5uSWT1oFPIllIusk-IL-9" target="Q5uSWT1oFPIllIusk-IL-13">
          <mxGeometry width="50" height="50" relative="1" as="geometry">
            <mxPoint x="290" y="540" as="sourcePoint" />
            <mxPoint x="340" y="490" as="targetPoint" />
          </mxGeometry>
        </mxCell>
        <mxCell id="Q5uSWT1oFPIllIusk-IL-17" value="" style="endArrow=classic;html=1;rounded=0;exitX=0.5;exitY=1;exitDx=0;exitDy=0;entryX=0.5;entryY=0;entryDx=0;entryDy=0;" edge="1" parent="1">
          <mxGeometry width="50" height="50" relative="1" as="geometry">
            <mxPoint x="259.88" y="540" as="sourcePoint" />
            <mxPoint x="259.88" y="560" as="targetPoint" />
          </mxGeometry>
        </mxCell>
        <mxCell id="q4nBlOnI2OoERigNED5n-14" value="" style="edgeStyle=orthogonalEdgeStyle;rounded=0;orthogonalLoop=1;jettySize=auto;html=1;" edge="1" parent="1" source="q4nBlOnI2OoERigNED5n-1" target="q4nBlOnI2OoERigNED5n-5">
          <mxGeometry relative="1" as="geometry" />
        </mxCell>
        <mxCell id="q4nBlOnI2OoERigNED5n-1" value="Data Twit" style="shape=parallelogram;html=1;strokeWidth=2;perimeter=parallelogramPerimeter;whiteSpace=wrap;rounded=1;arcSize=12;size=0.23;" vertex="1" parent="1">
          <mxGeometry x="600" y="80" width="80" height="40" as="geometry" />
        </mxCell>
        <mxCell id="q4nBlOnI2OoERigNED5n-2" value="Jumlah&lt;br&gt;following" style="shape=parallelogram;html=1;strokeWidth=2;perimeter=parallelogramPerimeter;whiteSpace=wrap;rounded=1;arcSize=12;size=0.23;" vertex="1" parent="1">
          <mxGeometry x="730" width="110" height="40" as="geometry" />
        </mxCell>
        <mxCell id="q4nBlOnI2OoERigNED5n-21" style="edgeStyle=orthogonalEdgeStyle;rounded=0;orthogonalLoop=1;jettySize=auto;html=1;exitX=1;exitY=0.5;exitDx=0;exitDy=0;entryX=0;entryY=0.5;entryDx=0;entryDy=0;" edge="1" parent="1" source="q4nBlOnI2OoERigNED5n-5" target="q4nBlOnI2OoERigNED5n-7">
          <mxGeometry relative="1" as="geometry" />
        </mxCell>
        <mxCell id="q4nBlOnI2OoERigNED5n-5" value="Teks twit" style="shape=parallelogram;html=1;strokeWidth=2;perimeter=parallelogramPerimeter;whiteSpace=wrap;rounded=1;arcSize=12;size=0.23;" vertex="1" parent="1">
          <mxGeometry x="720" y="80" width="80" height="40" as="geometry" />
        </mxCell>
        <mxCell id="q4nBlOnI2OoERigNED5n-6" value="Jumlah&lt;br&gt;postingan" style="shape=parallelogram;html=1;strokeWidth=2;perimeter=parallelogramPerimeter;whiteSpace=wrap;rounded=1;arcSize=12;size=0.23;" vertex="1" parent="1">
          <mxGeometry x="730" y="160" width="110" height="40" as="geometry" />
        </mxCell>
        <mxCell id="q4nBlOnI2OoERigNED5n-7" value="Nama &lt;br&gt;penulis asli" style="shape=parallelogram;html=1;strokeWidth=2;perimeter=parallelogramPerimeter;whiteSpace=wrap;rounded=1;arcSize=12;size=0.23;" vertex="1" parent="1">
          <mxGeometry x="810" y="80" width="110" height="40" as="geometry" />
        </mxCell>
        <mxCell id="q4nBlOnI2OoERigNED5n-33" style="edgeStyle=orthogonalEdgeStyle;rounded=0;orthogonalLoop=1;jettySize=auto;html=1;exitX=1;exitY=0.5;exitDx=0;exitDy=0;entryX=0;entryY=0.5;entryDx=0;entryDy=0;" edge="1" parent="1" source="q4nBlOnI2OoERigNED5n-13" target="q4nBlOnI2OoERigNED5n-32">
          <mxGeometry relative="1" as="geometry">
            <Array as="points">
              <mxPoint x="1140" y="20" />
              <mxPoint x="1140" y="100" />
            </Array>
          </mxGeometry>
        </mxCell>
        <mxCell id="q4nBlOnI2OoERigNED5n-13" value="&lt;br&gt;&lt;div&gt;filter&amp;nbsp;(jumlah following &amp;lt; 100) &amp;amp; (nama penulis asli &amp;gt; 3 digit)&lt;br&gt;&lt;br&gt;&lt;/div&gt;" style="rounded=1;whiteSpace=wrap;html=1;absoluteArcSize=1;arcSize=14;strokeWidth=2;" vertex="1" parent="1">
          <mxGeometry x="940" width="180" height="40" as="geometry" />
        </mxCell>
        <mxCell id="q4nBlOnI2OoERigNED5n-15" style="edgeStyle=orthogonalEdgeStyle;rounded=0;orthogonalLoop=1;jettySize=auto;html=1;exitX=1;exitY=0.5;exitDx=0;exitDy=0;entryX=0;entryY=0.5;entryDx=0;entryDy=0;" edge="1" parent="1" source="q4nBlOnI2OoERigNED5n-1" target="q4nBlOnI2OoERigNED5n-2">
          <mxGeometry relative="1" as="geometry">
            <Array as="points">
              <mxPoint x="700" y="100" />
              <mxPoint x="700" y="20" />
            </Array>
          </mxGeometry>
        </mxCell>
        <mxCell id="q4nBlOnI2OoERigNED5n-16" style="edgeStyle=orthogonalEdgeStyle;rounded=0;orthogonalLoop=1;jettySize=auto;html=1;exitX=1;exitY=0.5;exitDx=0;exitDy=0;entryX=0;entryY=0.5;entryDx=0;entryDy=0;" edge="1" parent="1" source="q4nBlOnI2OoERigNED5n-1" target="q4nBlOnI2OoERigNED5n-6">
          <mxGeometry relative="1" as="geometry">
            <Array as="points">
              <mxPoint x="700" y="100" />
              <mxPoint x="700" y="180" />
            </Array>
          </mxGeometry>
        </mxCell>
        <mxCell id="q4nBlOnI2OoERigNED5n-34" value="" style="edgeStyle=orthogonalEdgeStyle;rounded=0;orthogonalLoop=1;jettySize=auto;html=1;" edge="1" parent="1" source="q4nBlOnI2OoERigNED5n-19" target="q4nBlOnI2OoERigNED5n-32">
          <mxGeometry relative="1" as="geometry" />
        </mxCell>
        <mxCell id="q4nBlOnI2OoERigNED5n-19" value="&lt;br&gt;&lt;div&gt;filter (jumlah following &amp;lt; 100) &amp;amp;&lt;/div&gt;&lt;div&gt;(jumlah postingan &amp;gt; 1000)&lt;/div&gt;&lt;div&gt;&lt;br&gt;&lt;/div&gt;" style="rounded=1;whiteSpace=wrap;html=1;absoluteArcSize=1;arcSize=14;strokeWidth=2;" vertex="1" parent="1">
          <mxGeometry x="940" y="80" width="180" height="40" as="geometry" />
        </mxCell>
        <mxCell id="q4nBlOnI2OoERigNED5n-35" style="edgeStyle=orthogonalEdgeStyle;rounded=0;orthogonalLoop=1;jettySize=auto;html=1;exitX=1;exitY=0.5;exitDx=0;exitDy=0;entryX=0;entryY=0.5;entryDx=0;entryDy=0;" edge="1" parent="1" source="q4nBlOnI2OoERigNED5n-20" target="q4nBlOnI2OoERigNED5n-32">
          <mxGeometry relative="1" as="geometry">
            <Array as="points">
              <mxPoint x="1140" y="180" />
              <mxPoint x="1140" y="100" />
            </Array>
          </mxGeometry>
        </mxCell>
        <mxCell id="q4nBlOnI2OoERigNED5n-20" value="&lt;div&gt;filter&amp;nbsp;&lt;span style=&quot;background-color: initial;&quot;&gt;(jumlah postingan &amp;gt; 1000)&amp;amp;&lt;/span&gt;&lt;/div&gt;&lt;div&gt;(nama penulis asli &amp;gt; 3 digit)&lt;/div&gt;" style="rounded=1;whiteSpace=wrap;html=1;absoluteArcSize=1;arcSize=14;strokeWidth=2;" vertex="1" parent="1">
          <mxGeometry x="940" y="160" width="180" height="40" as="geometry" />
        </mxCell>
        <mxCell id="q4nBlOnI2OoERigNED5n-22" value="" style="endArrow=classic;html=1;rounded=0;entryX=0;entryY=0.5;entryDx=0;entryDy=0;exitX=1;exitY=0.5;exitDx=0;exitDy=0;" edge="1" parent="1" source="q4nBlOnI2OoERigNED5n-7" target="q4nBlOnI2OoERigNED5n-13">
          <mxGeometry width="50" height="50" relative="1" as="geometry">
            <mxPoint x="860" y="110" as="sourcePoint" />
            <mxPoint x="910" y="60" as="targetPoint" />
          </mxGeometry>
        </mxCell>
        <mxCell id="q4nBlOnI2OoERigNED5n-23" value="" style="endArrow=classic;html=1;rounded=0;entryX=0;entryY=0.5;entryDx=0;entryDy=0;exitX=1;exitY=0.5;exitDx=0;exitDy=0;" edge="1" parent="1" source="q4nBlOnI2OoERigNED5n-7" target="q4nBlOnI2OoERigNED5n-20">
          <mxGeometry width="50" height="50" relative="1" as="geometry">
            <mxPoint x="921" y="110" as="sourcePoint" />
            <mxPoint x="990" y="30" as="targetPoint" />
          </mxGeometry>
        </mxCell>
        <mxCell id="q4nBlOnI2OoERigNED5n-24" value="" style="endArrow=classic;html=1;rounded=0;entryX=0;entryY=0.5;entryDx=0;entryDy=0;exitX=1;exitY=0.5;exitDx=0;exitDy=0;" edge="1" parent="1" source="q4nBlOnI2OoERigNED5n-2" target="q4nBlOnI2OoERigNED5n-13">
          <mxGeometry width="50" height="50" relative="1" as="geometry">
            <mxPoint x="921" y="110" as="sourcePoint" />
            <mxPoint x="990" y="30" as="targetPoint" />
          </mxGeometry>
        </mxCell>
        <mxCell id="q4nBlOnI2OoERigNED5n-25" value="" style="endArrow=classic;html=1;rounded=0;exitX=1;exitY=0.5;exitDx=0;exitDy=0;entryX=0;entryY=0.5;entryDx=0;entryDy=0;" edge="1" parent="1" source="q4nBlOnI2OoERigNED5n-6" target="q4nBlOnI2OoERigNED5n-20">
          <mxGeometry width="50" height="50" relative="1" as="geometry">
            <mxPoint x="831" y="179.74" as="sourcePoint" />
            <mxPoint x="950" y="180" as="targetPoint" />
          </mxGeometry>
        </mxCell>
        <mxCell id="q4nBlOnI2OoERigNED5n-26" value="" style="endArrow=classic;html=1;rounded=0;entryX=0;entryY=0.5;entryDx=0;entryDy=0;exitX=1;exitY=0.5;exitDx=0;exitDy=0;" edge="1" parent="1" source="q4nBlOnI2OoERigNED5n-2" target="q4nBlOnI2OoERigNED5n-19">
          <mxGeometry width="50" height="50" relative="1" as="geometry">
            <mxPoint x="841" y="30" as="sourcePoint" />
            <mxPoint x="990" y="30" as="targetPoint" />
          </mxGeometry>
        </mxCell>
        <mxCell id="q4nBlOnI2OoERigNED5n-27" value="" style="endArrow=classic;html=1;rounded=0;entryX=0;entryY=0.5;entryDx=0;entryDy=0;exitX=1;exitY=0.5;exitDx=0;exitDy=0;" edge="1" parent="1" source="q4nBlOnI2OoERigNED5n-6" target="q4nBlOnI2OoERigNED5n-19">
          <mxGeometry width="50" height="50" relative="1" as="geometry">
            <mxPoint x="841" y="30" as="sourcePoint" />
            <mxPoint x="990" y="110" as="targetPoint" />
          </mxGeometry>
        </mxCell>
        <mxCell id="q4nBlOnI2OoERigNED5n-28" value="&lt;div&gt;Dataset&lt;/div&gt;&lt;div&gt;Latih Deteksi Buzzer&lt;br&gt;&lt;/div&gt;" style="shape=parallelogram;html=1;strokeWidth=2;perimeter=parallelogramPerimeter;whiteSpace=wrap;rounded=1;arcSize=12;size=0.23;" vertex="1" parent="1">
          <mxGeometry x="1230" y="140" width="110" height="50" as="geometry" />
        </mxCell>
        <mxCell id="q4nBlOnI2OoERigNED5n-37" style="edgeStyle=orthogonalEdgeStyle;rounded=0;orthogonalLoop=1;jettySize=auto;html=1;exitX=0.5;exitY=1;exitDx=0;exitDy=0;entryX=0.5;entryY=0;entryDx=0;entryDy=0;" edge="1" parent="1" source="q4nBlOnI2OoERigNED5n-31" target="q4nBlOnI2OoERigNED5n-28">
          <mxGeometry relative="1" as="geometry" />
        </mxCell>
        <mxCell id="q4nBlOnI2OoERigNED5n-31" value="Validasi Manual" style="rounded=1;whiteSpace=wrap;html=1;absoluteArcSize=1;arcSize=14;strokeWidth=2;" vertex="1" parent="1">
          <mxGeometry x="1260" y="80" width="60" height="40" as="geometry" />
        </mxCell>
        <mxCell id="q4nBlOnI2OoERigNED5n-36" style="edgeStyle=orthogonalEdgeStyle;rounded=0;orthogonalLoop=1;jettySize=auto;html=1;exitX=1;exitY=0.5;exitDx=0;exitDy=0;entryX=0;entryY=0.5;entryDx=0;entryDy=0;" edge="1" parent="1" source="q4nBlOnI2OoERigNED5n-32" target="q4nBlOnI2OoERigNED5n-31">
          <mxGeometry relative="1" as="geometry" />
        </mxCell>
        <mxCell id="q4nBlOnI2OoERigNED5n-32" value="&lt;div&gt;Dataset&lt;/div&gt;&lt;div&gt;Latih&lt;/div&gt;" style="shape=parallelogram;html=1;strokeWidth=2;perimeter=parallelogramPerimeter;whiteSpace=wrap;rounded=1;arcSize=12;size=0.23;" vertex="1" parent="1">
          <mxGeometry x="1160" y="80" width="80" height="40" as="geometry" />
        </mxCell>
        <mxCell id="rsWuSl79wtDQQIGEZhMW-1" value="" style="edgeStyle=orthogonalEdgeStyle;rounded=0;orthogonalLoop=1;jettySize=auto;html=1;entryX=0;entryY=0.5;entryDx=0;entryDy=0;" edge="1" parent="1" source="rsWuSl79wtDQQIGEZhMW-2" target="rsWuSl79wtDQQIGEZhMW-7">
          <mxGeometry relative="1" as="geometry">
            <mxPoint x="1034.1999999999998" y="500" as="targetPoint" />
          </mxGeometry>
        </mxCell>
        <mxCell id="rsWuSl79wtDQQIGEZhMW-2" value="Data Twit" style="shape=parallelogram;html=1;strokeWidth=2;perimeter=parallelogramPerimeter;whiteSpace=wrap;rounded=1;arcSize=12;size=0.23;" vertex="1" parent="1">
          <mxGeometry x="905" y="480" width="80" height="40" as="geometry" />
        </mxCell>
        <mxCell id="rsWuSl79wtDQQIGEZhMW-3" value="Jumlah&lt;br&gt;following" style="shape=parallelogram;html=1;strokeWidth=2;perimeter=parallelogramPerimeter;whiteSpace=wrap;rounded=1;arcSize=12;size=0.23;" vertex="1" parent="1">
          <mxGeometry x="1035" y="400" width="110" height="40" as="geometry" />
        </mxCell>
        <mxCell id="rsWuSl79wtDQQIGEZhMW-6" value="Jumlah&lt;br&gt;postingan" style="shape=parallelogram;html=1;strokeWidth=2;perimeter=parallelogramPerimeter;whiteSpace=wrap;rounded=1;arcSize=12;size=0.23;" vertex="1" parent="1">
          <mxGeometry x="1035" y="560" width="110" height="40" as="geometry" />
        </mxCell>
        <mxCell id="rsWuSl79wtDQQIGEZhMW-7" value="Nama &lt;br&gt;penulis asli" style="shape=parallelogram;html=1;strokeWidth=2;perimeter=parallelogramPerimeter;whiteSpace=wrap;rounded=1;arcSize=12;size=0.23;" vertex="1" parent="1">
          <mxGeometry x="1035" y="480" width="110" height="40" as="geometry" />
        </mxCell>
        <mxCell id="rsWuSl79wtDQQIGEZhMW-8" style="edgeStyle=orthogonalEdgeStyle;rounded=0;orthogonalLoop=1;jettySize=auto;html=1;exitX=1;exitY=0.5;exitDx=0;exitDy=0;entryX=0;entryY=0.5;entryDx=0;entryDy=0;" edge="1" parent="1" source="rsWuSl79wtDQQIGEZhMW-9" target="rsWuSl79wtDQQIGEZhMW-26">
          <mxGeometry relative="1" as="geometry">
            <Array as="points">
              <mxPoint x="1420" y="420" />
              <mxPoint x="1420" y="500" />
            </Array>
          </mxGeometry>
        </mxCell>
        <mxCell id="rsWuSl79wtDQQIGEZhMW-9" value="&lt;br&gt;&lt;div&gt;filter&amp;nbsp;(jumlah following &amp;lt; 100) &amp;amp; (nama penulis asli &amp;gt; 3 digit)&lt;br&gt;&lt;br&gt;&lt;/div&gt;" style="rounded=1;whiteSpace=wrap;html=1;absoluteArcSize=1;arcSize=14;strokeWidth=2;" vertex="1" parent="1">
          <mxGeometry x="1220" y="400" width="180" height="40" as="geometry" />
        </mxCell>
        <mxCell id="rsWuSl79wtDQQIGEZhMW-10" style="edgeStyle=orthogonalEdgeStyle;rounded=0;orthogonalLoop=1;jettySize=auto;html=1;exitX=1;exitY=0.5;exitDx=0;exitDy=0;entryX=0;entryY=0.5;entryDx=0;entryDy=0;" edge="1" parent="1" source="rsWuSl79wtDQQIGEZhMW-2" target="rsWuSl79wtDQQIGEZhMW-3">
          <mxGeometry relative="1" as="geometry">
            <Array as="points">
              <mxPoint x="1005" y="500" />
              <mxPoint x="1005" y="420" />
            </Array>
          </mxGeometry>
        </mxCell>
        <mxCell id="rsWuSl79wtDQQIGEZhMW-11" style="edgeStyle=orthogonalEdgeStyle;rounded=0;orthogonalLoop=1;jettySize=auto;html=1;exitX=1;exitY=0.5;exitDx=0;exitDy=0;entryX=0;entryY=0.5;entryDx=0;entryDy=0;" edge="1" parent="1" source="rsWuSl79wtDQQIGEZhMW-2" target="rsWuSl79wtDQQIGEZhMW-6">
          <mxGeometry relative="1" as="geometry">
            <Array as="points">
              <mxPoint x="1005" y="500" />
              <mxPoint x="1005" y="580" />
            </Array>
          </mxGeometry>
        </mxCell>
        <mxCell id="rsWuSl79wtDQQIGEZhMW-12" value="" style="edgeStyle=orthogonalEdgeStyle;rounded=0;orthogonalLoop=1;jettySize=auto;html=1;" edge="1" parent="1" source="rsWuSl79wtDQQIGEZhMW-13" target="rsWuSl79wtDQQIGEZhMW-26">
          <mxGeometry relative="1" as="geometry" />
        </mxCell>
        <mxCell id="rsWuSl79wtDQQIGEZhMW-13" value="&lt;br&gt;&lt;div&gt;filter (jumlah following &amp;lt; 100) &amp;amp;&lt;/div&gt;&lt;div&gt;(jumlah postingan &amp;gt; 1000)&lt;/div&gt;&lt;div&gt;&lt;br&gt;&lt;/div&gt;" style="rounded=1;whiteSpace=wrap;html=1;absoluteArcSize=1;arcSize=14;strokeWidth=2;" vertex="1" parent="1">
          <mxGeometry x="1220" y="480" width="180" height="40" as="geometry" />
        </mxCell>
        <mxCell id="rsWuSl79wtDQQIGEZhMW-14" style="edgeStyle=orthogonalEdgeStyle;rounded=0;orthogonalLoop=1;jettySize=auto;html=1;exitX=1;exitY=0.5;exitDx=0;exitDy=0;entryX=0;entryY=0.5;entryDx=0;entryDy=0;" edge="1" parent="1" source="rsWuSl79wtDQQIGEZhMW-15" target="rsWuSl79wtDQQIGEZhMW-26">
          <mxGeometry relative="1" as="geometry">
            <Array as="points">
              <mxPoint x="1420" y="580" />
              <mxPoint x="1420" y="500" />
            </Array>
          </mxGeometry>
        </mxCell>
        <mxCell id="rsWuSl79wtDQQIGEZhMW-15" value="&lt;div&gt;filter&amp;nbsp;&lt;span style=&quot;background-color: initial;&quot;&gt;(jumlah postingan &amp;gt; 1000)&amp;amp;&lt;/span&gt;&lt;/div&gt;&lt;div&gt;(nama penulis asli &amp;gt; 3 digit)&lt;/div&gt;" style="rounded=1;whiteSpace=wrap;html=1;absoluteArcSize=1;arcSize=14;strokeWidth=2;" vertex="1" parent="1">
          <mxGeometry x="1220" y="560" width="180" height="40" as="geometry" />
        </mxCell>
        <mxCell id="rsWuSl79wtDQQIGEZhMW-16" value="" style="endArrow=classic;html=1;rounded=0;entryX=0;entryY=0.75;entryDx=0;entryDy=0;exitX=1;exitY=0.5;exitDx=0;exitDy=0;" edge="1" parent="1" source="rsWuSl79wtDQQIGEZhMW-7" target="rsWuSl79wtDQQIGEZhMW-9">
          <mxGeometry width="50" height="50" relative="1" as="geometry">
            <mxPoint x="1165" y="510" as="sourcePoint" />
            <mxPoint x="1215" y="460" as="targetPoint" />
          </mxGeometry>
        </mxCell>
        <mxCell id="rsWuSl79wtDQQIGEZhMW-17" value="" style="endArrow=classic;html=1;rounded=0;entryX=0;entryY=0.25;entryDx=0;entryDy=0;exitX=1;exitY=0.5;exitDx=0;exitDy=0;" edge="1" parent="1" source="rsWuSl79wtDQQIGEZhMW-7" target="rsWuSl79wtDQQIGEZhMW-15">
          <mxGeometry width="50" height="50" relative="1" as="geometry">
            <mxPoint x="1226" y="510" as="sourcePoint" />
            <mxPoint x="1295" y="430" as="targetPoint" />
          </mxGeometry>
        </mxCell>
        <mxCell id="rsWuSl79wtDQQIGEZhMW-18" value="" style="endArrow=classic;html=1;rounded=0;entryX=0;entryY=0.5;entryDx=0;entryDy=0;exitX=1;exitY=0.5;exitDx=0;exitDy=0;" edge="1" parent="1" source="rsWuSl79wtDQQIGEZhMW-3" target="rsWuSl79wtDQQIGEZhMW-9">
          <mxGeometry width="50" height="50" relative="1" as="geometry">
            <mxPoint x="1226" y="510" as="sourcePoint" />
            <mxPoint x="1295" y="430" as="targetPoint" />
          </mxGeometry>
        </mxCell>
        <mxCell id="rsWuSl79wtDQQIGEZhMW-19" value="" style="endArrow=classic;html=1;rounded=0;exitX=1;exitY=0.5;exitDx=0;exitDy=0;entryX=0;entryY=0.5;entryDx=0;entryDy=0;" edge="1" parent="1" source="rsWuSl79wtDQQIGEZhMW-6" target="rsWuSl79wtDQQIGEZhMW-15">
          <mxGeometry width="50" height="50" relative="1" as="geometry">
            <mxPoint x="1136" y="579.74" as="sourcePoint" />
            <mxPoint x="1255" y="580" as="targetPoint" />
          </mxGeometry>
        </mxCell>
        <mxCell id="rsWuSl79wtDQQIGEZhMW-20" value="" style="endArrow=classic;html=1;rounded=0;entryX=0;entryY=0.25;entryDx=0;entryDy=0;exitX=1;exitY=0.5;exitDx=0;exitDy=0;" edge="1" parent="1" source="rsWuSl79wtDQQIGEZhMW-3" target="rsWuSl79wtDQQIGEZhMW-13">
          <mxGeometry width="50" height="50" relative="1" as="geometry">
            <mxPoint x="1146" y="430" as="sourcePoint" />
            <mxPoint x="1295" y="430" as="targetPoint" />
          </mxGeometry>
        </mxCell>
        <mxCell id="rsWuSl79wtDQQIGEZhMW-21" value="" style="endArrow=classic;html=1;rounded=0;entryX=0;entryY=0.75;entryDx=0;entryDy=0;exitX=1;exitY=0.5;exitDx=0;exitDy=0;" edge="1" parent="1" source="rsWuSl79wtDQQIGEZhMW-6" target="rsWuSl79wtDQQIGEZhMW-13">
          <mxGeometry width="50" height="50" relative="1" as="geometry">
            <mxPoint x="1146" y="430" as="sourcePoint" />
            <mxPoint x="1295" y="510" as="targetPoint" />
          </mxGeometry>
        </mxCell>
        <mxCell id="rsWuSl79wtDQQIGEZhMW-22" value="&lt;div&gt;Dataset&lt;/div&gt;&lt;div&gt;Latih Deteksi Buzzer&lt;br&gt;&lt;/div&gt;" style="shape=parallelogram;html=1;strokeWidth=2;perimeter=parallelogramPerimeter;whiteSpace=wrap;rounded=1;arcSize=12;size=0.23;" vertex="1" parent="1">
          <mxGeometry x="1510" y="540" width="110" height="50" as="geometry" />
        </mxCell>
        <mxCell id="rsWuSl79wtDQQIGEZhMW-23" style="edgeStyle=orthogonalEdgeStyle;rounded=0;orthogonalLoop=1;jettySize=auto;html=1;exitX=0.5;exitY=1;exitDx=0;exitDy=0;entryX=0.5;entryY=0;entryDx=0;entryDy=0;" edge="1" parent="1" source="rsWuSl79wtDQQIGEZhMW-24" target="rsWuSl79wtDQQIGEZhMW-22">
          <mxGeometry relative="1" as="geometry" />
        </mxCell>
        <mxCell id="rsWuSl79wtDQQIGEZhMW-24" value="Validasi Manual" style="rounded=1;whiteSpace=wrap;html=1;absoluteArcSize=1;arcSize=14;strokeWidth=2;" vertex="1" parent="1">
          <mxGeometry x="1540" y="480" width="60" height="40" as="geometry" />
        </mxCell>
        <mxCell id="rsWuSl79wtDQQIGEZhMW-25" style="edgeStyle=orthogonalEdgeStyle;rounded=0;orthogonalLoop=1;jettySize=auto;html=1;exitX=1;exitY=0.5;exitDx=0;exitDy=0;entryX=0;entryY=0.5;entryDx=0;entryDy=0;" edge="1" parent="1" source="rsWuSl79wtDQQIGEZhMW-26" target="rsWuSl79wtDQQIGEZhMW-24">
          <mxGeometry relative="1" as="geometry" />
        </mxCell>
        <mxCell id="rsWuSl79wtDQQIGEZhMW-26" value="&lt;div&gt;Dataset&lt;/div&gt;&lt;div&gt;Latih&lt;/div&gt;" style="shape=parallelogram;html=1;strokeWidth=2;perimeter=parallelogramPerimeter;whiteSpace=wrap;rounded=1;arcSize=12;size=0.23;" vertex="1" parent="1">
          <mxGeometry x="1440" y="480" width="80" height="40" as="geometry" />
        </mxCell>
      </root>
    </mxGraphModel>
  </diagram>
</mxfile>
